<?xml version="1.0" standalone="no"?>
<!DOCTYPE svg PUBLIC "-//W3C//DTD SVG 20010904//EN"
 "http://www.w3.org/TR/2001/REC-SVG-20010904/DTD/svg10.dtd">
<svg version="1.0" xmlns="http://www.w3.org/2000/svg"
 width="1080.000000pt" height="1080.000000pt" viewBox="0 0 1080.000000 1080.000000"
 preserveAspectRatio="xMidYMid meet">

<g transform="translate(0.000000,1080.000000) scale(0.100000,-0.100000)"
fill="#000000" stroke="none">
<path d="M5858 9809 c-370 -3 -923 -7 -1229 -8 -550 -1 -619 -5 -619 -35 0 -6
9 -17 21 -24 11 -7 31 -36 43 -63 l22 -50 1059 1 c583 1 1074 3 1090 4 17 2
90 4 163 4 96 2 134 5 136 15 3 6 7 25 11 41 3 17 22 44 41 62 19 18 34 37 34
42 0 16 -70 17 -772 11z"/>
<path d="M6661 9721 c-13 -11 -21 -30 -21 -50 0 -30 13 -41 25 -21 10 15 35
12 35 -5 0 -8 7 -15 15 -15 8 0 15 9 15 19 0 11 2 26 5 33 3 8 -7 23 -24 35
-28 21 -30 22 -50 4z"/>
<path d="M3902 9685 c-15 -32 -15 -72 -2 -80 6 -3 13 1 17 10 4 12 13 15 33
11 33 -6 44 2 28 21 -6 7 -8 16 -5 20 4 3 2 14 -4 24 -15 28 -53 24 -67 -6z"/>
<path d="M4020 9686 c0 -9 5 -16 10 -16 6 0 10 4 10 9 0 6 -4 13 -10 16 -5 3
-10 -1 -10 -9z"/>
<path d="M6824 9615 c-8 -33 -69 -85 -99 -85 -21 0 -25 5 -25 31 0 38 -21 34
-31 -5 -6 -22 -4 -32 11 -45 20 -16 20 -50 25 -1976 6 -1987 9 -2337 20 -2355
3 -5 19 -10 35 -10 19 0 41 -12 66 -35 20 -19 38 -35 40 -35 22 0 24 213 19
2210 -3 1174 -8 2166 -10 2203 -5 59 -26 127 -40 127 -3 0 -7 -11 -11 -25z"/>
<path d="M3947 9564 c-3 -4 -3 -19 0 -35 5 -27 4 -29 -29 -29 -24 0 -44 9 -68
32 l-35 31 -5 -29 c-3 -16 -5 -1010 -4 -2209 1 -2125 3 -2265 30 -2265 2 0 18
16 35 35 17 19 48 40 70 46 l39 12 2 2191 c2 1205 1 2199 -1 2209 -3 17 -22
23 -34 11z"/>
<path d="M5351 9514 c-12 -15 -21 -31 -21 -36 0 -30 25 -99 41 -114 42 -38 25
-47 -106 -58 -33 -3 -100 -10 -150 -15 -49 -5 -184 -19 -300 -31 -115 -11
-218 -23 -227 -26 -31 -9 -48 -34 -48 -68 0 -65 3 -66 327 -66 l291 0 19 -37
c11 -24 40 -52 78 -78 41 -27 66 -53 80 -81 14 -29 38 -53 78 -79 59 -38 127
-109 127 -131 0 -17 74 -50 144 -64 76 -16 146 -7 276 35 109 34 244 65 365
84 84 13 217 26 229 23 27 -8 31 22 28 226 l-3 209 -102 6 c-214 12 -407 72
-565 174 -56 37 -58 37 -150 35 -110 -3 -193 18 -307 78 -41 22 -76 40 -79 40
-2 0 -14 -12 -25 -26z"/>
<path d="M4135 9368 c-3 -8 -4 -317 -3 -688 l3 -675 40 0 40 0 5 415 5 415 90
5 89 5 -2 123 -3 122 30 18 c26 14 31 23 31 53 0 31 -4 38 -25 43 -15 4 -30
18 -35 32 -10 25 -12 26 -90 23 -43 -2 -82 0 -86 4 -4 3 -7 30 -8 59 l-1 53
-38 3 c-24 2 -39 -1 -42 -10z"/>
<path d="M6223 8296 c-27 -23 -28 -29 -31 -125 -4 -101 -4 -101 26 -131 32
-31 60 -37 93 -20 33 18 49 64 49 145 0 81 -16 127 -49 145 -31 16 -58 12 -88
-14z m82 -56 c31 -60 12 -175 -30 -175 -30 0 -46 42 -43 111 5 91 42 124 73
64z"/>
<path d="M6417 8313 c-4 -3 -7 -71 -7 -150 0 -144 0 -144 23 -141 21 3 22 8
21 76 0 39 3 72 8 72 4 0 24 -34 43 -75 27 -56 41 -75 55 -75 23 0 22 -2 20
170 -1 63 -5 119 -10 124 -19 19 -30 -9 -30 -80 0 -70 -13 -98 -26 -56 -11 32
-48 107 -63 125 -15 18 -24 21 -34 10z"/>
<path d="M4864 8298 c-24 -11 -44 -48 -44 -81 0 -32 28 -67 53 -67 33 0 67
-28 67 -54 0 -46 -47 -62 -77 -26 -22 25 -43 26 -43 2 0 -20 34 -55 63 -65 22
-8 72 16 81 38 10 28 7 90 -6 108 -7 9 -31 22 -53 29 -32 10 -41 18 -43 40 -4
35 27 54 54 33 45 -34 62 -1 18 34 -30 23 -39 24 -70 9z"/>
<path d="M5627 8304 c-4 -4 -7 -55 -7 -113 0 -88 3 -112 20 -138 22 -36 60
-50 99 -37 35 13 52 81 49 199 -3 76 -6 90 -20 93 -16 3 -18 -7 -18 -105 0
-134 -20 -175 -70 -143 -11 7 -16 37 -20 126 -5 108 -13 138 -33 118z"/>
<path d="M5828 8298 c-9 -22 3 -38 28 -38 23 0 23 -1 26 -122 3 -101 6 -123
18 -123 12 0 15 21 18 122 l3 122 27 3 c19 2 27 9 27 23 0 18 -8 20 -71 23
-52 2 -73 -1 -76 -10z"/>
<path d="M6007 8297 c-7 -19 4 -34 28 -38 18 -4 20 -13 23 -119 3 -118 10
-142 36 -121 12 10 15 36 14 124 -1 110 -1 112 23 117 15 4 25 14 27 28 3 21
0 22 -71 22 -53 0 -76 -4 -80 -13z"/>
<path d="M4394 8287 c-2 -7 -3 -71 -2 -142 3 -114 5 -130 21 -133 14 -3 17 4
17 50 0 62 11 78 56 78 39 0 74 38 74 80 0 15 -9 39 -21 54 -18 23 -28 26 -80
26 -40 0 -61 -4 -65 -13z m107 -37 c41 -23 13 -74 -38 -68 -20 2 -29 9 -31 26
-7 49 22 66 69 42z"/>
<path d="M4600 8195 c0 -122 14 -166 60 -185 32 -13 53 -6 85 30 18 19 20 36
20 138 0 103 -2 117 -17 120 -16 3 -18 -7 -18 -103 0 -58 -5 -115 -10 -126
-12 -21 -54 -26 -67 -6 -4 6 -10 61 -13 122 -4 94 -7 110 -22 113 -16 3 -18
-7 -18 -103z"/>
<path d="M5030 8156 c0 -123 2 -146 15 -146 8 0 15 6 16 13 0 6 1 35 2 62 l2
50 39 3 c48 4 57 -8 54 -70 -2 -50 4 -64 21 -53 7 4 11 58 11 146 0 128 -1
140 -17 137 -14 -3 -17 -12 -15 -37 6 -61 -4 -81 -42 -81 -44 0 -59 19 -54 72
2 34 0 43 -14 46 -17 3 -18 -9 -18 -142z"/>
<path d="M5412 8158 l3 -143 60 3 c33 2 66 8 72 14 23 19 26 74 7 107 -14 24
-16 33 -6 43 17 17 15 84 -4 102 -10 11 -34 16 -75 16 l-60 0 3 -142z m107 88
c9 -11 9 -20 2 -35 -26 -48 -90 -29 -77 23 5 20 13 26 35 26 16 0 34 -6 40
-14z m3 -128 c28 -31 7 -60 -40 -56 -29 2 -38 8 -40 25 -2 12 2 31 8 43 13 25
45 20 72 -12z"/>
<path d="M5274 7641 c-47 -29 -72 -70 -84 -144 -22 -123 16 -244 85 -273 72
-30 138 -8 176 59 21 37 24 54 24 152 0 124 -11 156 -68 199 -41 31 -89 34
-133 7z m92 -66 c60 -42 55 -250 -7 -288 -27 -17 -65 0 -83 37 -18 39 -22 169
-6 213 19 51 57 66 96 38z"/>
<path d="M5571 7646 c-8 -9 -11 -76 -9 -217 l3 -204 35 0 35 0 5 90 c5 89 5
90 32 92 31 2 39 -8 63 -83 33 -102 35 -104 71 -104 42 0 42 4 4 109 l-30 82
25 33 c14 18 28 47 31 65 9 42 -19 102 -56 124 -38 23 -193 33 -209 13z m188
-98 c14 -24 14 -28 -3 -47 -14 -16 -31 -21 -68 -21 l-48 0 0 51 0 50 52 -3
c45 -3 55 -7 67 -30z"/>
<path d="M4895 7640 c-2 -3 -6 -99 -8 -212 -3 -203 -3 -206 18 -210 41 -8 45
-1 45 99 l0 95 58 -4 57 -3 3 33 3 32 -60 0 -61 0 0 55 0 55 89 0 c86 0 89 1
93 24 3 14 2 28 -1 33 -7 10 -230 13 -236 3z"/>
<path d="M4795 6888 c-3 -7 -4 -231 -3 -498 l3 -485 550 0 550 0 0 495 0 495
-548 3 c-433 2 -549 0 -552 -10z m633 -116 c15 -19 15 -37 2 -63 -16 -30 -83
-27 -99 5 -33 61 53 113 97 58z m-45 -134 c14 -18 32 -53 40 -78 12 -38 24
-51 75 -85 62 -40 78 -65 43 -65 -29 0 -124 32 -144 48 -19 17 -18 17 -35 -21
-17 -40 -15 -54 16 -100 33 -50 46 -78 61 -132 6 -22 18 -66 28 -98 18 -60 15
-70 -24 -81 -25 -8 -33 7 -77 133 -26 76 -49 111 -71 111 -7 0 -36 -58 -65
-130 -29 -71 -57 -130 -63 -130 -6 0 -18 7 -27 15 -16 14 -15 22 7 108 14 50
29 108 35 127 5 19 13 80 18 135 4 55 11 110 15 123 6 18 4 22 -13 22 -16 0
-21 -9 -26 -47 -12 -85 -17 -103 -32 -103 -11 0 -14 19 -14 89 0 87 1 90 29
110 44 31 153 81 178 81 13 0 32 -13 46 -32z"/>
<path d="M4371 5539 c-84 -56 -149 -105 -145 -109 30 -29 301 -200 314 -198
15 3 17 25 9 93 l-4 30 959 3 c753 2 962 5 968 15 10 15 8 121 -2 138 -6 9
-223 11 -964 7 -526 -3 -959 -1 -962 3 -2 4 1 28 8 54 11 39 10 47 -2 55 -8 6
-17 10 -20 10 -3 0 -74 -46 -159 -101z"/>
<path d="M6680 5084 c-13 -32 -13 -47 -1 -39 5 3 12 1 16 -5 8 -13 42 -13 50
0 4 6 4 24 0 40 -9 40 -51 43 -65 4z"/>
<path d="M3951 5077 c-6 -6 -11 -16 -11 -22 0 -15 43 -55 58 -55 15 0 15 8 1
48 -12 34 -31 46 -48 29z"/>
<path d="M4140 5042 c-5 -2 -13 -21 -16 -42 -4 -23 -20 -55 -40 -79 -28 -32
-31 -40 -18 -45 9 -3 568 -6 1243 -6 1158 0 1316 3 1354 27 5 3 -10 20 -31 39
-26 22 -43 47 -49 71 l-9 38 -1212 0 c-666 0 -1216 -2 -1222 -3z"/>
<path d="M6696 4944 c-9 -23 -8 -24 24 -24 23 0 30 4 30 20 0 25 -45 28 -54 4z"/>
<path d="M3987 4933 c-4 -3 -7 -15 -7 -25 0 -12 7 -18 24 -18 29 0 39 12 30
34 -6 16 -35 22 -47 9z"/>
<path d="M5271 4460 c-37 -38 -45 -61 -36 -116 4 -31 15 -50 38 -70 28 -23 38
-26 89 -22 82 6 113 37 113 113 0 48 -4 58 -34 89 -31 32 -40 36 -87 36 -45 0
-57 -4 -83 -30z m151 -44 c21 -25 23 -65 6 -89 -17 -23 -64 -34 -113 -27 -40
5 -40 5 -43 53 -3 51 8 73 43 87 31 13 88 0 107 -24z"/>
<path d="M5265 4119 c-133 -17 -271 -74 -378 -157 -116 -89 -234 -271 -274
-422 -25 -94 -22 -290 5 -391 47 -176 175 -359 317 -456 90 -61 226 -114 345
-134 80 -13 97 -13 185 0 224 34 423 159 544 341 54 80 76 131 112 250 28 91
12 386 -23 425 -4 5 -8 15 -8 22 0 48 -94 199 -179 287 -99 102 -218 175 -351
215 -31 9 -206 33 -220 30 -3 -1 -36 -6 -75 -10z m315 -69 c272 -91 456 -298
515 -582 33 -157 4 -341 -78 -493 -12 -22 -24 -42 -27 -45 -3 -3 -18 -23 -35
-45 -138 -188 -378 -296 -625 -282 -242 13 -441 129 -574 335 -25 39 -46 73
-46 76 0 4 -8 25 -19 49 -49 111 -68 241 -52 355 28 193 90 323 215 447 109
109 213 166 366 200 93 21 274 13 360 -15z"/>
<path d="M4950 3484 c-72 -75 -130 -142 -128 -150 3 -15 266 -284 277 -284 4
0 24 16 45 35 31 29 38 40 34 64 -2 17 -2 29 2 28 3 -1 18 8 34 21 16 12 25
22 20 23 -5 0 0 4 11 9 11 5 163 9 338 9 199 1 326 5 338 11 16 9 19 22 19 95
0 74 -2 85 -17 85 -10 0 -180 0 -379 0 -199 0 -369 2 -378 6 -11 4 -13 10 -8
18 5 6 12 25 15 42 5 25 0 38 -24 67 -57 69 -53 71 -199 -79z"/>
<path d="M4736 3444 c-9 -68 -7 -157 4 -174 7 -10 10 23 10 103 0 64 -2 117
-4 117 -2 0 -6 -21 -10 -46z"/>
<path d="M5985 3380 c-9 -14 4 -90 16 -90 11 0 22 42 17 71 -3 25 -22 36 -33
19z"/>
<path d="M6762 2039 c1 -121 5 -222 10 -225 4 -3 8 6 8 20 0 14 9 64 20 111
13 58 20 121 20 194 0 104 -1 109 -22 115 -13 3 -26 6 -30 6 -4 0 -7 -99 -6
-221z"/>
<path d="M6728 1285 c-6 -30 -3 -43 8 -33 3 4 4 19 2 35 l-3 28 -7 -30z"/>
<path d="M6482 1132 c-13 -2 -41 -21 -63 -43 -30 -30 -39 -47 -39 -73 0 -19
-3 -41 -6 -50 -4 -11 2 -15 28 -15 18 0 55 -3 81 -7 53 -7 81 6 59 28 -7 7
-12 24 -12 38 0 14 -5 31 -11 37 -8 8 -4 18 12 37 31 36 56 33 73 -9 8 -19 17
-35 19 -35 2 0 4 22 3 50 l-1 50 -60 -2 c-33 -2 -70 -4 -83 -6z m-12 -122 c0
-25 -4 -30 -25 -30 -30 0 -35 33 -7 49 27 16 32 13 32 -19z"/>
<path d="M4290 1098 c0 -7 -3 -23 -6 -35 -5 -17 -2 -23 10 -23 9 0 16 6 16 14
0 7 7 19 15 26 8 7 12 16 9 21 -8 14 -44 11 -44 -3z"/>
<path d="M4360 1046 c0 -9 5 -16 10 -16 6 0 10 4 10 9 0 6 -4 13 -10 16 -5 3
-10 -1 -10 -9z"/>
<path d="M4307 1023 c-2 -5 -7 -25 -11 -45 -7 -36 -5 -38 19 -38 35 0 85 27
85 46 0 10 -6 13 -18 10 -11 -4 -27 2 -40 14 -23 22 -29 24 -35 13z"/>
<path d="M6605 1009 c-4 -6 -5 -12 -2 -15 2 -3 7 2 10 11 7 17 1 20 -8 4z"/>
</g>
</svg>
