<?xml version="1.0" standalone="no"?>
<!DOCTYPE svg PUBLIC "-//W3C//DTD SVG 20010904//EN"
 "http://www.w3.org/TR/2001/REC-SVG-20010904/DTD/svg10.dtd">
<svg version="1.0" xmlns="http://www.w3.org/2000/svg"
 width="1080.000000pt" height="1080.000000pt" viewBox="0 0 1080.000000 1080.000000"
 preserveAspectRatio="xMidYMid meet">

<g transform="translate(0.000000,1080.000000) scale(0.100000,-0.100000)"
fill="#000000" stroke="none">
<path d="M5050 9645 c0 -8 -10 -23 -22 -34 -21 -20 -21 -21 -3 -41 10 -11 29
-20 43 -20 21 0 23 3 18 25 -6 22 -3 25 18 25 14 0 36 -11 50 -25 19 -19 36
-25 73 -26 99 -3 138 2 153 20 11 13 22 16 37 10 12 -4 131 -10 265 -14 133
-3 304 -10 378 -15 152 -11 241 -16 480 -25 256 -10 313 -14 407 -26 49 -6
158 -12 243 -15 85 -2 191 -6 235 -8 44 -3 134 -8 200 -12 66 -4 126 -11 133
-17 8 -6 17 -5 27 3 10 8 19 9 28 3 6 -5 32 -9 57 -8 25 1 55 -4 68 -12 16
-10 27 -11 41 -3 32 16 176 13 191 -5 15 -18 91 -20 107 -4 9 9 18 8 37 -5 17
-10 35 -14 51 -10 15 4 25 2 25 -4 0 -6 13 -9 33 -6 17 3 59 0 92 -6 33 -6 76
-13 95 -14 48 -4 133 -29 142 -41 5 -6 17 -6 37 2 18 6 56 9 90 6 52 -5 60 -9
66 -30 3 -13 14 -32 25 -43 10 -10 26 -30 35 -44 16 -23 15 -25 -6 -37 l-23
-12 22 -8 c12 -5 22 -13 22 -19 0 -5 7 -10 15 -10 11 0 15 -12 15 -49 0 -48 1
-49 34 -55 19 -4 36 -10 38 -14 2 -4 28 -29 58 -57 64 -57 79 -80 80 -117 0
-30 25 -39 47 -17 8 8 13 8 17 0 4 -6 3 -11 -2 -11 -5 0 -12 -11 -14 -24 -4
-18 -1 -22 13 -19 23 6 59 -64 40 -77 -9 -5 -6 -14 12 -34 13 -14 29 -26 34
-26 10 0 33 -43 33 -60 0 -15 -38 -12 -43 3 -2 6 -8 9 -12 4 -5 -4 1 -17 13
-30 29 -30 30 -61 2 -52 -14 5 -20 2 -20 -9 0 -9 5 -16 10 -16 6 0 10 -14 10
-30 0 -18 6 -33 15 -36 8 -4 15 -14 15 -24 0 -10 5 -20 11 -22 7 -2 12 -40 13
-99 3 -102 8 -121 31 -112 13 4 15 -10 16 -83 0 -49 2 -159 4 -244 2 -85 6
-309 10 -497 3 -189 7 -348 10 -355 2 -7 7 -510 10 -1118 3 -608 9 -1179 12
-1269 4 -122 2 -165 -7 -171 -9 -6 -9 -12 1 -28 11 -17 11 -24 1 -34 -14 -14
-16 -48 -2 -48 5 0 9 -50 9 -119 0 -92 -3 -120 -14 -124 -16 -7 -25 13 -25 54
0 18 4 28 10 24 17 -10 11 18 -9 44 -22 29 -36 13 -20 -22 8 -19 9 -34 1 -56
-10 -27 -8 -33 11 -46 12 -8 27 -15 34 -15 7 0 13 -9 13 -20 0 -26 -30 -26
-37 0 -11 42 -23 17 -22 -47 1 -67 1 -68 11 -25 7 31 14 42 28 42 25 0 26 -20
27 -902 l0 -738 -24 -27 c-18 -18 -23 -34 -20 -52 3 -14 2 -57 -2 -96 -5 -38
-6 -76 -3 -82 5 -17 29 -17 35 0 3 6 6 -4 6 -24 1 -33 -1 -36 -23 -32 -29 6
-45 -16 -23 -31 22 -17 32 -99 17 -139 -12 -28 -45 -103 -86 -192 -24 -50 -36
-67 -106 -136 -61 -61 -87 -79 -188 -131 -95 -49 -283 -78 -680 -108 -63 -4
-146 -13 -185 -19 -38 -6 -99 -13 -135 -15 -36 -3 -110 -10 -165 -16 -55 -6
-143 -15 -195 -20 -52 -5 -160 -16 -240 -25 -80 -8 -191 -15 -247 -15 -56 0
-113 -4 -127 -10 -14 -5 -59 -12 -100 -15 -41 -4 -121 -12 -178 -20 -101 -13
-98 -13 209 -14 280 -1 561 14 663 34 14 3 81 10 150 15 69 5 193 17 275 26
83 9 200 20 260 24 61 4 142 12 180 18 39 6 106 16 150 23 302 44 364 63 485
145 88 59 200 167 260 250 27 38 58 78 69 89 11 11 25 34 32 50 12 28 13 28
16 7 6 -30 42 -50 57 -31 6 8 28 27 49 42 20 16 35 32 32 37 -3 5 3 17 15 27
11 10 20 25 20 33 0 9 7 25 15 36 8 10 15 30 15 45 0 14 4 29 9 35 12 12 21
59 30 169 l8 90 2 -110 c3 -139 19 -113 20 32 1 109 -6 152 -20 117 -4 -10 -7
24 -7 76 1 80 2 87 8 40 l6 -55 8 37 c4 21 5 79 1 130 -4 51 -7 102 -6 113 4
74 10 1065 6 1083 -3 13 -10 20 -15 17 -6 -4 -10 56 -11 162 -1 225 0 252 17
293 13 31 13 36 -1 46 -15 11 -18 33 -14 104 1 14 3 119 4 233 2 114 5 214 8
221 3 8 -1 26 -9 41 -9 17 -11 32 -5 39 5 6 10 142 11 306 0 162 3 305 6 317
4 16 1 25 -10 29 -20 8 -22 64 -2 64 8 0 17 -7 20 -16 4 -9 9 -14 12 -11 4 3
-3 19 -15 35 -11 16 -18 32 -15 35 5 4 11 368 17 952 2 122 5 169 14 168 19
-4 25 28 5 33 -16 5 -17 21 -14 207 1 111 3 207 2 212 0 6 -2 37 -3 70 -2 33
-1 64 2 70 3 5 4 27 2 48 -1 21 3 45 9 53 10 11 10 17 0 29 -10 12 -10 21 0
45 11 25 10 34 -5 56 -11 17 -13 29 -7 33 7 4 13 170 17 471 10 627 7 825 -12
873 -10 25 -13 53 -10 82 5 36 4 43 -8 39 -11 -4 -15 1 -15 18 0 13 -7 33 -15
45 -8 12 -16 30 -18 42 -2 11 -6 24 -10 27 -4 4 -7 17 -7 28 -1 12 -14 37 -30
56 -17 19 -30 40 -30 47 0 7 -4 13 -9 13 -4 0 -21 19 -36 43 -16 23 -34 45
-40 49 -12 7 -78 60 -115 91 -16 14 -40 28 -90 54 -33 17 -134 18 -2232 21
-1928 2 -2198 0 -2198 -13z m4393 -1210 c-7 -21 -13 -19 -13 6 0 11 4 18 10
14 5 -3 7 -12 3 -20z m444 -5017 c-3 -7 -5 -2 -5 12 0 14 2 19 5 13 2 -7 2
-19 0 -25z m0 -155 c-2 -21 -4 -4 -4 37 0 41 2 58 4 38 2 -21 2 -55 0 -75z m0
-85 c-3 -8 -6 -5 -6 6 -1 11 2 17 5 13 3 -3 4 -12 1 -19z m4 -146 c-2 -25 -6
-40 -10 -34 -6 10 -7 61 -1 112 2 24 3 24 9 -4 3 -16 4 -50 2 -74z m-4 -444
c-3 -7 -5 -2 -5 12 0 14 2 19 5 13 2 -7 2 -19 0 -25z m-333 -429 c-3 -5 -10
-7 -15 -3 -5 3 -7 10 -3 15 3 5 10 7 15 3 5 -3 7 -10 3 -15z"/>
<path d="M5200 9372 c-98 -36 -198 -148 -224 -250 -81 -309 131 -639 390 -608
82 9 132 35 192 100 91 96 130 215 118 356 -12 129 -60 233 -145 315 -100 96
-220 128 -331 87z m270 -343 c0 -5 -4 -9 -10 -9 -5 0 -10 7 -10 16 0 8 5 12
10 9 6 -3 10 -10 10 -16z m27 -51 c-3 -8 -6 -5 -6 6 -1 11 2 17 5 13 3 -3 4
-12 1 -19z m-167 -57 c30 -5 40 -10 29 -15 -8 -4 -27 -3 -40 2 -14 6 -83 11
-154 11 -78 1 -134 6 -140 13 -11 12 221 3 305 -11z m214 3 c9 -3 13 -10 10
-15 -8 -14 -21 -11 -28 6 -6 17 -4 18 18 9z"/>
<path d="M5880 9366 c-15 -19 -3 -408 14 -432 14 -19 46 -9 47 15 0 9 1 56 2
105 1 61 6 91 15 93 6 3 12 -4 13 -14 0 -10 17 -61 38 -113 35 -90 39 -95 67
-95 l29 0 3 211 c3 224 -1 241 -45 232 -16 -3 -18 -17 -21 -116 -3 -123 -16
-143 -38 -61 -14 50 -55 158 -67 177 -11 16 -42 15 -57 -2z"/>
<path d="M6223 9345 c-82 -57 -96 -274 -26 -383 88 -135 223 -40 223 157 0
165 -108 289 -197 226z m101 -98 c17 -23 22 -46 25 -118 3 -96 -8 -143 -40
-159 -58 -31 -107 86 -89 213 14 95 60 123 104 64z"/>
<path d="M6471 9336 c-11 -13 -5 -50 39 -216 5 -19 18 -73 29 -119 21 -86 34
-111 57 -111 18 0 28 25 49 120 31 147 47 216 58 263 12 51 4 66 -35 67 -22 0
-28 -11 -38 -73 -16 -101 -31 -182 -36 -186 -2 -2 -6 -2 -9 1 -5 5 -41 154
-52 213 -9 52 -38 71 -62 41z"/>
<path d="M6824 9303 c-3 -16 -8 -35 -11 -43 -2 -8 -11 -51 -20 -95 -28 -149
-30 -160 -43 -206 -16 -55 -8 -82 22 -77 15 2 24 14 32 43 10 36 15 40 46 43
45 3 58 -6 75 -54 23 -68 77 -56 57 13 -12 42 -30 119 -63 268 -27 122 -33
135 -64 135 -19 0 -26 -7 -31 -27z m56 -214 c0 -43 -3 -50 -17 -47 -14 3 -18
13 -17 40 2 83 34 89 34 7z"/>
<path d="M8887 9310 c3 -11 9 -17 15 -14 5 3 4 12 -3 20 -16 19 -18 18 -12 -6z"/>
<path d="M8825 9310 c3 -5 10 -10 16 -10 5 0 9 5 9 10 0 6 -7 10 -16 10 -8 0
-12 -4 -9 -10z"/>
<path d="M7050 9290 c0 -11 4 -28 10 -38 20 -36 60 -135 60 -151 0 -17 -42
-127 -66 -173 -22 -42 -18 -58 15 -58 29 0 40 19 66 108 11 39 35 21 64 -48
20 -49 32 -66 49 -68 33 -5 29 25 -18 138 l-39 97 20 54 c11 30 29 71 39 91
23 44 17 68 -15 68 -29 0 -40 -14 -55 -69 -10 -37 -14 -42 -25 -30 -8 8 -20
32 -27 54 -11 35 -17 40 -45 43 -28 3 -33 0 -33 -18z"/>
<path d="M8907 9104 c-8 -8 1 -24 14 -24 5 0 9 7 9 15 0 15 -12 20 -23 9z"/>
<path d="M7517 9074 c-4 -4 -7 -54 -7 -111 0 -87 3 -105 16 -110 31 -12 39 19
34 123 -4 79 -8 99 -20 102 -9 1 -19 0 -23 -4z"/>
<path d="M7592 8968 c3 -98 5 -113 21 -116 14 -3 17 4 17 49 0 51 0 52 19 35
11 -10 23 -31 26 -46 7 -33 29 -55 45 -45 6 4 10 50 10 116 0 101 -1 109 -19
109 -24 0 -30 -17 -20 -55 5 -16 5 -33 0 -38 -9 -9 -20 5 -52 68 -8 16 -23 31
-32 33 -16 3 -17 -6 -15 -110z"/>
<path d="M7764 9057 c-2 -7 -3 -58 -2 -113 l3 -99 48 -3 c66 -4 87 19 87 97 0
31 -3 66 -6 78 -11 39 -117 72 -130 40z m79 -51 c22 -17 24 -98 2 -116 -23
-19 -33 -3 -35 55 -4 82 -1 87 33 61z"/>
<path d="M7923 9044 c-9 -23 3 -145 17 -176 15 -31 59 -53 89 -43 34 11 51 56
51 138 0 74 -6 87 -40 87 -5 0 -11 -39 -12 -87 -3 -80 -5 -88 -23 -88 -18 0
-20 8 -23 93 -3 91 -3 92 -28 92 -13 0 -27 -7 -31 -16z"/>
<path d="M8150 9053 c-25 -9 -40 -35 -40 -68 0 -30 25 -65 46 -65 5 0 20 -7
32 -16 17 -12 20 -19 12 -29 -13 -15 -46 -9 -54 11 -10 26 -36 16 -36 -14 0
-30 40 -62 77 -62 24 0 58 37 67 71 6 29 -11 50 -65 77 -18 10 -35 23 -37 30
-5 18 45 15 52 -3 3 -8 15 -15 26 -15 32 0 24 36 -13 64 -35 27 -41 28 -67 19z"/>
<path d="M8280 9023 c0 -10 10 -23 23 -28 20 -9 22 -18 25 -90 3 -86 12 -106
37 -85 12 10 14 27 11 80 -4 62 -3 69 20 89 38 33 26 46 -49 49 -59 3 -67 1
-67 -15z"/>
<path d="M8447 9033 c-4 -3 -7 -50 -7 -103 0 -74 4 -101 15 -110 25 -21 47 -4
43 32 -2 24 1 33 12 33 10 0 16 -12 18 -32 3 -31 32 -60 46 -46 10 10 7 63 -5
85 -8 14 -8 23 0 31 18 18 13 71 -9 95 -15 16 -32 22 -64 22 -23 0 -46 -3 -49
-7z m83 -67 c0 -21 -21 -31 -30 -15 -5 7 -6 17 -4 21 9 14 34 9 34 -6z"/>
<path d="M8608 9033 c-2 -5 -2 -57 0 -116 3 -105 4 -108 25 -105 20 3 22 9 24
88 3 88 -10 140 -33 140 -7 0 -14 -3 -16 -7z"/>
<path d="M8683 9018 c-12 -20 -3 -191 10 -204 20 -19 94 -24 108 -8 18 22 -8
45 -45 42 -26 -2 -32 1 -34 20 -3 20 1 22 38 22 37 0 41 2 38 23 -2 17 -11 23
-38 27 -46 7 -49 36 -4 33 35 -3 58 16 48 41 -8 20 -108 23 -121 4z"/>
<path d="M8851 9001 c-12 -16 -21 -38 -21 -48 0 -23 35 -58 73 -72 15 -6 27
-17 27 -26 0 -19 -36 -20 -47 -1 -12 21 -47 24 -51 5 -5 -24 52 -79 81 -79 27
0 77 50 77 76 0 8 -7 26 -16 40 -15 23 -15 26 0 43 16 18 16 21 2 44 -18 26
-56 47 -86 47 -10 0 -28 -13 -39 -29z m87 -52 c12 -19 11 -20 -15 -17 -17 2
-29 10 -31 21 -5 24 30 22 46 -4z"/>
<path d="M7125 8603 c-34 -5 -108 -28 -138 -45 -38 -20 -119 -102 -152 -153
-17 -27 -42 -88 -54 -135 -20 -73 -23 -101 -18 -200 5 -133 25 -200 88 -297
77 -118 177 -182 298 -191 184 -12 343 120 429 358 23 62 22 246 -2 315 -32
95 -71 160 -130 219 -93 90 -220 142 -321 129z"/>
<path d="M5475 7180 c-3 -5 1 -10 10 -10 9 0 13 5 10 10 -3 6 -8 10 -10 10 -2
0 -7 -4 -10 -10z"/>
<path d="M8742 7140 c-16 -26 -15 -30 3 -30 9 0 18 7 21 15 4 8 16 15 28 15
26 0 60 -36 52 -56 -3 -8 1 -14 10 -14 31 0 28 33 -6 62 -41 34 -89 38 -108 8z"/>
<path d="M8770 7095 c0 -9 9 -15 21 -15 18 0 19 2 9 15 -7 8 -16 15 -21 15 -5
0 -9 -7 -9 -15z"/>
<path d="M8696 7081 c-4 -7 -5 -15 -2 -18 9 -9 19 4 14 18 -4 11 -6 11 -12 0z"/>
<path d="M8880 7034 c0 -14 4 -23 10 -19 6 3 10 15 10 26 0 10 -4 19 -10 19
-5 0 -10 -12 -10 -26z"/>
<path d="M8666 7003 c-11 -47 1 -86 37 -127 25 -28 41 -38 72 -41 22 -2 31 -2
20 1 -11 4 -24 12 -28 20 -4 8 -17 14 -27 14 -13 0 -20 7 -20 20 0 11 -7 23
-15 26 -9 4 -15 20 -16 43 0 20 -4 45 -8 56 -7 17 -9 16 -15 -12z"/>
<path d="M5300 6980 c0 -5 5 -10 11 -10 5 0 7 5 4 10 -3 6 -8 10 -11 10 -2 0
-4 -4 -4 -10z"/>
<path d="M8869 6966 c-18 -18 -25 -33 -22 -47 4 -13 -1 -25 -16 -35 -25 -18
-27 -34 -5 -34 32 0 77 74 72 117 l-3 26 -26 -27z"/>
<path d="M7105 6956 c-33 -50 -35 -87 -25 -495 5 -223 12 -757 15 -1186 4
-682 21 -1976 28 -2272 2 -92 5 -104 26 -127 14 -14 31 -26 38 -26 27 0 93 50
99 76 6 22 2 616 -11 1574 -13 986 -16 1251 -21 1795 -3 341 -10 628 -15 637
-18 34 -41 48 -79 48 -31 0 -43 -5 -55 -24z"/>
<path d="M5460 6880 c0 -5 9 -10 19 -10 11 0 23 5 26 10 4 6 -5 10 -19 10 -14
0 -26 -4 -26 -10z"/>
<path d="M9920 6744 c0 -8 5 -12 10 -9 6 4 8 11 5 16 -9 14 -15 11 -15 -7z"/>
<path d="M6785 6650 c-29 -11 -41 -29 -49 -70 -6 -32 8 -1639 20 -2365 2 -159
6 -445 8 -635 3 -295 6 -350 19 -377 28 -53 73 -53 130 1 l29 27 -6 627 c-4
345 -9 753 -11 907 -3 154 -9 611 -13 1015 -5 404 -9 755 -9 780 -1 36 -6 49
-32 72 -32 29 -51 33 -86 18z"/>
<path d="M7480 6654 c-9 -3 -24 -20 -35 -40 -17 -33 -18 -61 -17 -482 2 -246
7 -683 12 -972 5 -289 12 -831 16 -1204 6 -732 5 -723 58 -747 18 -8 31 -7 55
5 69 36 65 -43 52 1059 -7 545 -15 1289 -18 1652 -5 627 -6 662 -24 691 -23
38 -55 50 -99 38z"/>
<path d="M9924 6490 c0 -74 1 -105 3 -67 2 37 2 97 0 135 -2 37 -3 6 -3 -68z"/>
<path d="M9921 6334 c0 -11 3 -14 6 -6 3 7 2 16 -1 19 -3 4 -6 -2 -5 -13z"/>
<path d="M7835 6331 c-11 -5 -29 -19 -40 -31 -19 -21 -20 -36 -20 -269 0 -135
4 -597 8 -1026 15 -1421 15 -1404 45 -1437 25 -30 70 -22 110 18 l35 35 -7
392 c-9 522 -14 921 -22 1642 -3 389 -9 610 -16 628 -9 22 -55 60 -70 56 -2 0
-12 -4 -23 -8z"/>
<path d="M6445 6320 c-11 -4 -29 -18 -40 -30 -20 -22 -20 -35 -18 -664 3 -587
6 -882 18 -1775 5 -320 9 -351 46 -374 24 -15 68 0 102 34 l30 30 -8 702 c-11
1041 -13 1245 -20 1657 -5 371 -6 375 -28 396 -27 27 -56 35 -82 24z"/>
<path d="M8148 5991 l-33 -29 0 -324 c0 -412 5 -887 14 -1339 6 -312 9 -360
24 -383 27 -40 83 -32 129 19 18 19 18 43 12 475 -9 537 -10 715 -12 1191 l-2
357 -29 31 c-36 39 -62 39 -103 2z"/>
<path d="M6062 5967 c-13 -13 -27 -39 -32 -58 -7 -23 -7 -293 0 -804 18 -1365
15 -1261 34 -1289 31 -47 121 -26 146 34 13 33 13 98 -7 1589 l-6 493 -24 29
c-32 37 -80 40 -111 6z"/>
<path d="M8497 5690 c-9 -6 -25 -25 -34 -43 -19 -35 -19 4 -5 -939 l7 -438 27
-26 c26 -26 27 -26 65 -12 25 10 44 27 56 49 16 31 17 60 12 349 -11 690 -16
966 -15 991 0 53 -69 95 -113 69z"/>
<path d="M5699 5622 l-34 -30 3 -449 c5 -862 8 -967 26 -1001 29 -56 93 -52
138 10 23 31 26 187 14 897 -9 530 -10 544 -30 567 -12 13 -35 27 -52 30 -26
5 -38 0 -65 -24z"/>
<path d="M9435 5510 c3 -5 8 -10 11 -10 2 0 4 5 4 10 0 6 -5 10 -11 10 -5 0
-7 -4 -4 -10z"/>
<path d="M9480 4960 c0 -5 5 -10 10 -10 6 0 10 5 10 10 0 6 -4 10 -10 10 -5 0
-10 -4 -10 -10z"/>
<path d="M9477 4904 c-16 -16 -7 -44 14 -44 15 0 20 5 17 22 -3 22 -19 33 -31
22z"/>
<path d="M9470 4815 c0 -17 5 -25 13 -22 6 2 12 12 12 22 0 10 -6 20 -12 23
-8 2 -13 -6 -13 -23z"/>
<path d="M9492 4720 c0 -14 2 -19 5 -12 2 6 2 18 0 25 -3 6 -5 1 -5 -13z"/>
<path d="M9896 3932 c-4 -18 -5 -36 -2 -39 11 -12 17 5 14 39 l-3 33 -9 -33z"/>
<path d="M9480 3884 c0 -8 5 -12 10 -9 6 3 10 10 10 16 0 5 -4 9 -10 9 -5 0
-10 -7 -10 -16z"/>
<path d="M9484 3596 c-4 -17 1 -34 17 -55 17 -24 20 -33 10 -44 -6 -8 -9 -22
-5 -31 3 -9 1 -23 -6 -31 -9 -11 -11 -34 -7 -73 4 -33 2 -70 -5 -88 -7 -19 -8
-39 -3 -50 8 -16 13 -72 16 -162 1 -31 20 -23 32 13 8 22 6 31 -7 40 -14 11
-15 14 -1 25 21 17 19 67 -2 79 -16 9 -16 13 -5 31 20 33 24 284 5 333 -17 43
-30 47 -39 13z"/>
<path d="M8812 3085 c-36 -20 -91 -78 -92 -97 0 -9 -8 -30 -17 -46 -16 -28
-16 -32 1 -75 10 -26 32 -58 49 -73 26 -22 38 -25 76 -21 49 5 79 32 106 96
17 38 20 117 5 126 -5 3 -10 17 -10 30 0 15 -12 33 -33 49 -37 29 -51 30 -85
11z m10 -70 c-4 -25 6 -32 24 -16 5 5 19 12 31 15 17 5 24 0 37 -25 13 -26 14
-39 5 -68 -21 -64 -30 -78 -66 -95 -32 -15 -37 -15 -70 0 -28 14 -34 22 -30
41 3 14 -1 23 -9 23 -26 0 -25 22 2 76 18 35 34 54 45 54 10 0 21 5 24 10 10
16 13 12 7 -15z"/>
<path d="M8841 2956 c-8 -10 -9 -16 -1 -21 13 -8 30 3 30 21 0 18 -14 18 -29
0z"/>
<path d="M8860 2894 c0 -8 5 -12 10 -9 6 4 8 11 5 16 -9 14 -15 11 -15 -7z"/>
<path d="M9480 3020 c0 -5 5 -10 10 -10 6 0 10 5 10 10 0 6 -4 10 -10 10 -5 0
-10 -4 -10 -10z"/>
<path d="M9517 2993 c-4 -3 -7 -16 -7 -28 0 -11 -5 -26 -11 -32 -14 -14 16
-87 32 -78 12 8 12 45 -1 45 -6 0 -6 9 0 26 18 47 10 90 -13 67z"/>
<path d="M9490 2801 c0 -6 5 -13 10 -16 6 -3 10 -50 10 -105 0 -59 4 -101 11
-105 19 -12 21 2 8 64 -9 47 -9 67 0 89 16 38 5 82 -20 82 -10 0 -19 -4 -19
-9z"/>
<path d="M5350 2664 c0 -19 8 -38 22 -50 20 -18 21 -18 15 -1 -4 10 -7 24 -7
31 0 7 -7 21 -15 32 -14 18 -14 17 -15 -12z"/>
<path d="M9090 2595 c-9 -10 -10 -35 -5 -87 11 -113 16 -120 72 -116 44 3 48
5 48 28 0 18 -5 24 -17 23 -10 -2 -26 -4 -35 -5 -16 -3 -18 8 -21 85 -3 89
-13 107 -42 72z"/>
<path d="M8954 2563 c-15 -37 -30 -97 -41 -160 -4 -26 -2 -33 11 -33 9 0 21
11 27 24 17 36 45 39 68 8 15 -20 23 -24 31 -16 8 8 7 26 -5 70 -9 33 -19 70
-22 84 -6 27 -31 60 -44 60 -5 0 -16 -17 -25 -37z m36 -77 c0 -8 -4 -18 -10
-21 -5 -3 -10 3 -10 14 0 12 5 21 10 21 6 0 10 -6 10 -14z"/>
<path d="M8742 2483 c3 -95 5 -108 21 -111 16 -3 18 2 15 39 -4 58 15 60 42 4
15 -31 28 -45 39 -43 13 3 16 21 19 111 l3 107 -26 0 c-23 0 -25 -4 -25 -45 0
-25 -4 -45 -10 -45 -5 0 -18 20 -29 45 -12 26 -27 45 -36 45 -13 0 -15 -15
-13 -107z"/>
<path d="M8597 2569 c-41 -24 -61 -113 -36 -162 23 -46 87 -74 104 -47 3 6 15
10 26 10 16 0 19 7 19 45 0 35 -5 47 -21 55 -11 7 -27 9 -35 6 -16 -6 -19 -42
-4 -51 18 -11 10 -25 -14 -25 -26 0 -36 17 -36 58 0 51 11 72 36 72 13 0 24
-4 24 -10 0 -5 11 -10 25 -10 31 0 32 10 0 44 -25 27 -57 33 -88 15z"/>
<path d="M8332 2537 c-12 -13 -22 -35 -22 -48 0 -33 34 -69 66 -69 27 0 43
-25 26 -42 -11 -11 -24 -7 -53 14 -9 6 -24 8 -33 5 -23 -9 -5 -42 32 -61 41
-21 88 3 96 48 9 47 0 62 -45 80 -21 9 -39 23 -39 31 0 19 34 19 50 0 19 -22
30 -18 30 11 0 53 -69 72 -108 31z"/>
<path d="M8477 2553 c-2 -5 -2 -54 1 -110 4 -90 7 -103 22 -103 26 0 28 14 22
123 -4 85 -7 97 -23 97 -10 0 -20 -3 -22 -7z"/>
<path d="M8000 2511 c-11 -22 -13 -106 -4 -164 5 -28 11 -37 23 -35 12 3 15
13 13 40 -5 50 12 55 39 11 27 -45 37 -53 56 -46 11 4 13 28 11 107 -3 96 -4
101 -25 104 -21 3 -23 0 -23 -47 0 -39 -4 -51 -15 -51 -8 0 -15 7 -15 15 0 20
-32 85 -42 85 -4 0 -12 -9 -18 -19z"/>
<path d="M7730 2402 c0 -60 3 -112 7 -115 3 -4 12 -2 20 4 16 14 18 154 3 193
-20 54 -30 26 -30 -82z"/>
<path d="M7855 2477 c-25 -61 -48 -164 -41 -183 7 -19 8 -18 21 1 26 37 36 45
56 45 11 0 24 -11 31 -25 6 -14 16 -24 22 -22 20 8 9 66 -36 190 -14 36 -36
34 -53 -6z m35 -82 c0 -14 -4 -25 -10 -25 -5 0 -10 11 -10 25 0 14 5 25 10 25
6 0 10 -11 10 -25z"/>
<path d="M7598 2493 c-35 -5 -40 -23 -36 -133 3 -77 5 -85 23 -85 16 0 20 7
21 33 1 38 7 47 29 39 9 -4 15 -18 15 -36 0 -18 6 -31 17 -35 29 -11 37 9 23
58 -10 36 -10 52 0 75 9 22 9 35 1 50 -12 21 -43 42 -58 40 -4 -1 -20 -4 -35
-6z m50 -66 c4 -20 -25 -34 -40 -19 -15 15 -1 44 19 40 10 -2 19 -11 21 -21z"/>
<path d="M7445 2480 c-31 -3 -50 -10 -49 -17 2 -29 5 -33 18 -33 20 0 26 -23
26 -102 0 -66 1 -69 23 -66 20 3 22 8 24 78 0 41 2 80 2 86 1 7 10 14 21 17
25 6 26 33 3 38 -10 3 -40 2 -68 -1z"/>
<path d="M7236 2449 c-19 -15 -26 -30 -26 -54 0 -37 9 -47 63 -66 20 -7 37
-19 37 -26 0 -25 -31 -26 -62 -3 -33 24 -50 15 -41 -21 13 -48 85 -64 121 -26
46 50 35 100 -29 121 -42 14 -53 46 -15 46 14 0 26 -4 26 -10 0 -5 9 -10 20
-10 32 0 27 48 -6 60 -38 15 -58 12 -88 -11z"/>
<path d="M7068 2453 l-28 -4 0 -109 c0 -60 3 -110 8 -113 4 -2 33 -1 65 1 47
3 57 7 57 22 0 23 -16 29 -58 22 -31 -4 -33 -3 -30 19 2 19 10 25 38 29 27 4
35 10 35 25 0 16 -8 21 -37 23 -53 4 -51 30 3 38 33 6 40 10 37 28 -3 22 -33
28 -90 19z"/>
<path d="M6884 2430 c-26 -10 -34 -45 -28 -129 6 -77 15 -91 61 -91 26 0 42 8
64 31 83 89 10 233 -97 189z m77 -67 c15 -40 -1 -97 -29 -101 -21 -3 -22 0
-22 62 0 60 2 66 20 66 13 0 24 -10 31 -27z"/>
<path d="M6703 2423 c-14 -5 -19 -176 -7 -207 5 -12 21 -16 64 -16 33 0 62 5
66 11 10 17 -14 34 -49 34 -22 0 -33 5 -35 18 -4 17 2 21 51 31 18 4 27 13 27
26 0 15 -8 19 -37 22 -50 4 -52 31 -3 38 27 4 36 10 38 28 3 20 0 22 -50 21
-29 0 -59 -3 -65 -6z"/>
<path d="M6531 2397 c-12 -16 -14 -186 -1 -206 14 -23 38 -4 42 31 2 27 8 34
28 36 41 6 60 30 60 77 0 28 -6 47 -18 58 -22 20 -95 23 -111 4z m74 -57 c0
-27 -22 -39 -31 -16 -8 22 3 49 19 43 6 -2 12 -14 12 -27z"/>
<path d="M6240 2381 l-35 -6 -3 -92 c-4 -119 4 -133 67 -133 32 0 53 5 61 15
18 22 -2 40 -43 40 -26 0 -33 5 -35 23 -2 13 2 22 10 23 7 1 18 2 23 4 6 1 18
3 28 3 9 1 17 9 17 17 0 15 -6 18 -50 19 -18 1 -26 7 -28 23 -3 19 2 22 35 25
30 2 38 7 38 23 0 22 -26 27 -85 16z"/>
<path d="M6043 2359 c-13 -13 -6 -174 9 -202 7 -14 19 -17 61 -15 44 3 52 6
52 23 0 16 -7 20 -32 20 -17 0 -34 2 -37 5 -3 3 -6 37 -7 75 -1 39 -3 78 -6
88 -5 19 -24 22 -40 6z"/>
<path d="M5878 2353 c-16 -4 -18 -18 -18 -103 0 -130 22 -154 105 -114 38 18
54 59 35 94 -6 11 -8 35 -4 54 11 59 -41 89 -118 69z m62 -64 c0 -25 -33 -22
-38 4 -2 12 3 17 17 17 15 0 21 -6 21 -21z m8 -83 c5 -24 -10 -38 -31 -30 -20
7 -22 25 -5 42 16 16 32 10 36 -12z"/>
<path d="M5787 2343 c-12 -11 -8 -211 4 -219 24 -14 33 17 31 104 -4 112 -12
139 -35 115z"/>
<path d="M5611 2324 c-22 -16 -23 -21 -18 -103 3 -47 8 -94 12 -103 9 -22 41
-23 88 -3 27 11 39 25 52 59 20 53 15 86 -21 134 -29 37 -73 43 -113 16z m90
-55 c17 -33 3 -106 -23 -115 -12 -3 -24 -1 -28 6 -8 13 -11 110 -3 123 9 15
43 6 54 -14z"/>
<path d="M5416 2305 c-15 -16 -15 -27 -1 -144 6 -48 31 -71 75 -71 53 0 72 33
77 130 4 79 -5 107 -31 97 -13 -5 -16 -22 -16 -80 0 -84 -16 -121 -44 -98 -12
10 -16 32 -16 86 0 81 -15 109 -44 80z"/>
<path d="M5256 2265 c-9 -20 -18 -52 -22 -73 -4 -20 -13 -50 -19 -67 -22 -54
2 -74 37 -30 23 30 58 32 83 5 40 -44 47 -6 14 80 -11 30 -23 64 -26 75 -16
55 -47 59 -67 10z"/>
<path d="M8284 2156 c-9 -24 12 -44 28 -28 10 10 8 16 -5 29 -15 15 -17 15
-23 -1z"/>
<path d="M7965 2130 c-8 -16 -15 -36 -15 -44 0 -8 -4 -17 -9 -20 -14 -9 -41 4
-41 20 0 8 -7 14 -15 14 -23 0 -18 -26 11 -55 19 -19 24 -34 22 -58 -3 -36
-35 -50 -50 -23 -5 9 -13 16 -18 16 -15 0 -12 -40 4 -56 34 -33 96 3 96 56 0
32 45 120 61 120 13 0 11 34 -3 48 -18 18 -26 15 -43 -18z"/>
<path d="M7567 2110 c-25 -20 -27 -26 -27 -104 0 -73 3 -85 23 -104 28 -27 42
-27 65 -4 47 46 56 138 19 193 -28 42 -46 46 -80 19z m62 -61 c10 -32 10 -51
0 -90 -14 -52 -24 -59 -45 -31 -17 22 -18 134 -2 150 21 21 35 13 47 -29z"/>
<path d="M7396 2086 c-23 -22 -26 -33 -26 -94 0 -58 4 -73 24 -97 33 -38 69
-29 96 25 29 57 25 110 -14 177 -1 1 -13 4 -28 8 -21 5 -33 1 -52 -19z m65
-48 c10 -31 11 -56 5 -90 -10 -54 -27 -61 -52 -23 -27 41 -8 155 26 155 4 0
14 -19 21 -42z"/>
<path d="M8450 2058 c-14 -29 -26 -56 -28 -60 -2 -5 4 -8 14 -8 10 0 25 -7 35
-16 16 -14 20 -14 46 3 49 31 82 83 53 83 -5 0 -10 -4 -10 -10 0 -23 -30 -8
-50 25 -12 19 -25 35 -28 35 -4 0 -18 -24 -32 -52z m48 -25 c2 -11 -4 -23 -12
-26 -12 -5 -16 1 -16 24 0 35 23 36 28 2z"/>
<path d="M8341 2057 c-25 -51 -26 -67 -7 -67 7 0 19 -7 26 -15 13 -15 50 -21
50 -7 0 4 -9 18 -20 32 -21 27 -26 50 -10 50 6 0 10 -4 10 -10 0 -5 5 -10 10
-10 6 0 10 16 10 35 0 30 -3 35 -24 35 -19 0 -29 -10 -45 -43z"/>
<path d="M8261 2060 c-23 -32 -41 -32 -41 -1 0 16 -6 18 -47 13 -27 -2 -50 -6
-52 -8 -2 -2 1 -15 7 -29 7 -14 12 -39 12 -55 0 -20 5 -30 15 -30 10 0 15 11
15 35 0 29 4 35 21 35 11 0 34 -13 51 -30 29 -30 68 -40 68 -19 0 7 -8 18 -17
25 -15 11 -16 16 -5 33 14 23 16 61 4 61 -5 0 -18 -14 -31 -30z"/>
<path d="M7253 2073 c-15 -6 -18 -53 -3 -53 14 0 13 -133 -2 -148 -9 -9 -8
-13 5 -18 24 -9 53 0 48 17 -3 8 -7 56 -10 108 -6 91 -12 105 -38 94z"/>
<path d="M6882 2063 c-29 -6 -38 -28 -21 -49 13 -15 14 -96 2 -162 -5 -32 -4
-33 23 -30 20 2 28 8 25 18 -2 8 -6 45 -9 82 -7 114 15 150 52 87 24 -40 23
-90 -3 -139 -15 -29 -17 -40 -7 -40 14 0 33 20 54 57 24 44 11 113 -32 161
-19 21 -35 24 -84 15z"/>
<path d="M7056 2055 c-9 -9 -16 -27 -16 -39 0 -26 17 -42 73 -70 20 -11 37
-22 38 -25 0 -3 2 -14 4 -23 2 -10 -3 -18 -10 -18 -7 0 -18 -7 -25 -15 -10
-12 -9 -15 5 -15 20 0 54 38 55 61 0 23 -28 54 -70 77 -19 10 -36 26 -38 35
-5 25 26 32 58 13 38 -22 52 -20 48 7 -3 19 -10 22 -54 25 -37 2 -56 -2 -68
-13z"/>
<path d="M8006 2037 c-30 -40 -31 -49 -10 -82 22 -33 84 -32 84 1 0 8 7 14 15
14 9 0 15 9 15 25 0 34 -16 31 -29 -5 -11 -33 -41 -41 -41 -11 0 11 5 23 10
26 6 3 10 19 10 36 0 39 -22 38 -54 -4z"/>
<path d="M840 2056 c0 -2 7 -6 15 -10 8 -3 15 -1 15 4 0 6 -7 10 -15 10 -8 0
-15 -2 -15 -4z"/>
<path d="M6611 2029 c-14 -5 -38 -8 -54 -7 -27 3 -60 -23 -46 -36 2 -3 36 -2
74 2 62 6 70 9 73 30 4 24 -8 27 -47 11z"/>
<path d="M900 2012 c0 -5 7 -13 16 -16 10 -4 14 -1 12 6 -5 15 -28 23 -28 10z"/>
<path d="M6193 2003 c-41 -5 -42 -19 -7 -121 37 -107 42 -116 60 -101 21 17
18 57 -6 64 -11 4 -20 15 -20 26 0 11 -7 33 -15 48 -13 26 -13 30 0 41 14 12
42 10 78 -5 14 -6 17 -2 17 24 0 29 -2 31 -37 29 -21 0 -53 -3 -70 -5z"/>
<path d="M6387 1994 c-15 -16 -7 -63 13 -74 17 -9 19 -17 14 -50 -4 -25 -3
-40 4 -40 5 0 15 -14 21 -31 6 -17 15 -28 21 -24 14 9 13 51 -4 88 -7 18 -20
54 -27 81 -14 48 -28 64 -42 50z"/>
<path d="M6009 1959 c-26 -28 -29 -38 -29 -99 0 -64 2 -70 31 -94 37 -31 59
-33 82 -6 50 58 52 145 6 204 -27 34 -55 33 -90 -5z m55 -5 c46 -18 38 -184
-9 -184 -44 0 -64 92 -34 159 15 33 18 35 43 25z"/>
<path d="M5894 1966 c-7 -19 3 -36 22 -36 10 0 14 8 12 22 -4 26 -26 36 -34
14z"/>
<path d="M9870 1937 c0 -23 4 -36 10 -32 13 8 13 35 0 55 -7 11 -10 5 -10 -23z"/>
<path d="M5780 1951 c0 -25 24 -71 41 -76 10 -4 19 -13 19 -20 0 -8 6 -18 14
-22 8 -4 21 -25 30 -46 16 -41 39 -46 44 -10 2 13 -12 36 -37 62 -22 23 -43
51 -47 64 -3 12 -13 30 -22 40 -16 18 -42 23 -42 8z"/>
<path d="M6548 1928 c-9 -24 3 -38 32 -38 35 0 61 27 39 41 -21 13 -66 11 -71
-3z"/>
<path d="M7044 1885 c-7 -17 2 -45 13 -45 4 0 14 4 21 9 12 7 12 12 1 30 -16
25 -27 27 -35 6z"/>
<path d="M6360 1868 c-1 -13 -7 -34 -15 -48 -21 -37 -19 -52 8 -48 15 2 21 9
19 21 -2 9 4 24 12 33 12 12 13 20 4 39 -14 31 -28 32 -28 3z"/>
<path d="M6573 1843 c-36 -3 -53 -9 -57 -20 -11 -26 5 -32 77 -26 62 5 67 7
67 29 0 17 -5 23 -17 22 -10 -1 -41 -3 -70 -5z"/>
<path d="M1360 1790 c18 -12 30 -13 30 -2 0 4 -10 9 -22 9 -18 2 -20 0 -8 -7z"/>
<path d="M5785 1749 c-5 -14 -2 -25 6 -30 19 -11 32 5 24 30 -8 27 -22 27 -30
0z"/>
<path d="M1583 1733 c9 -2 23 -2 30 0 6 3 -1 5 -18 5 -16 0 -22 -2 -12 -5z"/>
<path d="M7350 1706 c0 -13 8 -39 17 -58 9 -18 19 -39 23 -47 3 -8 16 -18 29
-23 22 -8 23 -7 16 29 -7 38 -59 123 -75 123 -6 0 -10 -11 -10 -24z"/>
<path d="M7267 1694 c-4 -4 -7 -33 -7 -65 0 -57 0 -58 -32 -65 -56 -13 -78 -1
-78 44 0 12 -4 22 -10 22 -5 0 -10 -14 -10 -31 0 -38 -16 -69 -35 -69 -10 0
-15 11 -15 36 0 41 -20 43 -31 3 -28 -100 20 -235 96 -270 11 -5 27 -14 36
-20 10 -7 27 -9 45 -5 27 7 28 8 9 19 -11 6 -26 18 -32 28 -7 9 -29 33 -48 53
-45 47 -45 71 0 86 25 8 39 8 56 0 12 -7 34 -10 49 -6 20 3 35 -1 51 -15 13
-11 32 -19 44 -17 16 2 20 10 20 40 0 20 6 43 13 49 6 7 12 26 12 42 0 22 -6
30 -30 39 -17 5 -37 23 -46 39 -8 16 -19 29 -25 29 -5 0 -13 9 -17 20 -4 12
-11 18 -15 14z m1 -171 c-3 -30 -25 -42 -34 -19 -9 22 2 46 21 46 12 0 15 -8
13 -27z"/>
<path d="M1820 1680 c0 -5 4 -10 9 -10 6 0 13 5 16 10 3 6 -1 10 -9 10 -9 0
-16 -4 -16 -10z"/>
<path d="M1918 1653 c7 -3 16 -2 19 1 4 3 -2 6 -13 5 -11 0 -14 -3 -6 -6z"/>
<path d="M7437 1513 c-11 -10 -8 -43 3 -43 6 0 10 11 10 25 0 26 -2 29 -13 18z"/>
<path d="M7383 1387 c-8 -17 -23 -27 -46 -31 -33 -6 -57 -39 -38 -50 22 -14
108 68 99 95 -2 6 -9 0 -15 -14z"/>
<path d="M9475 1320 c-3 -5 1 -10 9 -10 9 0 16 5 16 10 0 6 -4 10 -9 10 -6 0
-13 -4 -16 -10z"/>
<path d="M9403 1281 c-41 -16 -76 -41 -40 -28 10 4 24 7 30 7 7 0 23 9 37 20
29 23 28 23 -27 1z"/>
<path d="M9255 1235 c-22 -8 -58 -18 -80 -22 l-40 -7 38 -4 c21 -2 51 4 69 12
17 9 44 16 59 16 15 0 31 5 34 10 9 14 -32 11 -80 -5z"/>
<path d="M9005 1180 c8 -13 65 -13 85 0 11 7 0 10 -38 10 -33 0 -51 -4 -47
-10z"/>
<path d="M8948 1174 c-9 -8 -37 -12 -97 -13 -35 -1 -51 -5 -45 -10 5 -6 36 -6
77 -1 66 8 86 15 75 25 -2 3 -7 2 -10 -1z"/>
<path d="M4880 1150 c0 -5 5 -10 10 -10 6 0 10 5 10 10 0 6 -4 10 -10 10 -5 0
-10 -4 -10 -10z"/>
</g>
</svg>
