<?xml version="1.0" standalone="no"?>
<!DOCTYPE svg PUBLIC "-//W3C//DTD SVG 20010904//EN"
 "http://www.w3.org/TR/2001/REC-SVG-20010904/DTD/svg10.dtd">
<svg version="1.0" xmlns="http://www.w3.org/2000/svg"
 width="574.000000pt" height="553.000000pt" viewBox="0 0 574.000000 553.000000"
 preserveAspectRatio="xMidYMid meet">

<g transform="translate(0.000000,553.000000) scale(0.100000,-0.100000)"
fill="#000000" stroke="none">
<path d="M1940 5006 c0 -31 -16 -36 -88 -30 -48 4 -61 2 -65 -10 -8 -20 -27
-21 -27 -1 0 11 -11 15 -42 13 -37 -1 -39 -2 -10 -5 22 -3 32 -9 32 -22 0 -15
-8 -17 -62 -15 -35 2 -85 7 -113 12 l-50 9 44 2 c62 2 45 11 -30 17 -41 3 -59
2 -51 -4 11 -7 10 -10 -3 -16 -31 -11 -58 -7 -52 9 8 19 -11 31 -26 16 -9 -9
-8 -16 1 -31 7 -11 9 -20 4 -20 -4 0 -15 12 -24 28 -17 26 -17 26 -18 5 0 -28
-16 -30 -23 -3 -6 23 -37 17 -37 -6 0 -17 -12 -18 -26 -4 -12 12 -154 20 -154
8 0 -4 -7 -5 -15 -2 -8 4 -15 1 -15 -5 0 -12 -258 -12 -266 1 -3 4 0 8 7 8 34
0 -5 11 -55 15 -52 4 -57 3 -52 -13 6 -16 5 -16 -8 1 -17 21 -36 22 -36 1 0
-9 -7 -14 -18 -12 -10 2 -17 12 -17 26 0 12 -3 22 -7 22 -40 0 -43 -1 -23 -10
17 -7 16 -9 -10 -10 -29 -2 -30 -2 -5 -10 22 -6 23 -8 7 -15 -11 -5 -25 -1
-37 10 -17 16 -20 16 -26 2 -3 -10 -17 -15 -35 -15 -17 1 -28 6 -26 12 3 7
-10 10 -39 7 -28 -2 -44 1 -44 8 0 6 -9 11 -20 11 -11 0 -20 5 -20 10 0 6 -29
10 -66 10 -52 0 -64 -3 -57 -12 6 -7 10 -20 10 -30 0 -13 -4 -14 -19 -5 -17
11 -17 12 0 19 12 5 8 7 -15 7 -17 1 -33 -4 -35 -11 -3 -7 -37 -13 -91 -16
l-87 -5 0 -68 0 -69 128 0 c70 0 192 -3 272 -5 160 -6 1265 -25 1428 -25 95 0
104 -2 109 -20 3 -11 12 -20 19 -20 8 0 14 -7 14 -15 0 -8 -7 -15 -16 -15 -14
0 -16 -8 -11 -51 4 -30 13 -56 23 -63 15 -11 15 -14 0 -29 -13 -13 -15 -27
-10 -72 4 -30 11 -58 15 -61 12 -7 0 -53 -22 -84 -17 -26 -17 -26 9 -36 15 -6
59 -12 97 -13 39 0 91 -4 116 -7 41 -5 47 -3 52 16 3 12 14 24 24 26 21 6 89
127 79 142 -4 6 -9 32 -11 57 -3 26 -7 51 -11 56 -3 5 -34 9 -69 9 l-63 0 -7
40 c-4 21 -4 48 0 60 4 12 0 26 -9 36 -9 9 -13 20 -10 26 5 8 201 9 653 3 681
-8 756 -8 889 1 54 4 88 2 96 -5 8 -7 42 -14 77 -17 35 -4 68 -10 73 -14 4 -5
11 -111 13 -237 5 -207 4 -230 -11 -246 -16 -16 -15 -17 18 -17 19 0 38 5 42
11 4 8 0 9 -15 4 -15 -5 -21 -2 -21 9 0 9 7 16 16 16 17 0 43 27 44 44 0 4 -9
6 -21 3 -14 -4 -6 7 22 31 24 20 56 50 71 66 33 36 63 125 62 186 l0 46 60 14
61 15 0 40 c0 38 -1 40 -32 40 -24 0 -35 -6 -43 -23 -8 -19 -17 -23 -48 -21
-53 3 -62 1 -62 -15 0 -18 -45 -13 -66 8 -8 9 -19 14 -24 11 -4 -3 -10 6 -12
20 -3 14 -1 25 3 25 5 0 9 5 9 11 0 5 -3 8 -7 6 -5 -3 -6 14 -5 38 3 36 0 45
-18 55 -18 10 -24 9 -30 -1 -5 -7 -17 -14 -27 -15 -10 -1 -35 -5 -55 -8 -20
-3 -40 -2 -43 4 -8 13 -55 13 -55 0 0 -14 -63 -13 -95 2 -14 6 -25 18 -25 26
0 11 -8 13 -37 8 -21 -4 -69 -7 -108 -6 -38 1 -89 1 -112 0 -24 0 -43 4 -43
10 0 14 -47 13 -53 -2 -3 -7 -6 -3 -6 10 -1 20 -6 22 -58 22 -32 0 -68 3 -80
6 -13 4 -23 2 -23 -4 0 -6 10 -13 23 -15 15 -4 12 -5 -8 -4 -18 1 -29 7 -28
15 2 6 -4 12 -12 12 -8 0 -15 -4 -15 -10 0 -5 -12 -10 -26 -10 -14 0 -23 4
-19 10 4 6 -12 10 -42 9 -26 -1 -40 -3 -30 -6 11 -3 16 -10 13 -20 -3 -8 -6
-18 -6 -21 0 -4 -5 0 -10 8 -7 12 -27 14 -84 13 -61 -2 -78 1 -99 17 -14 11
-36 20 -49 19 l-23 0 23 -9 c27 -11 29 -26 2 -33 -11 -3 -18 0 -17 7 1 6 -12
11 -33 11 -23 0 -34 -4 -32 -12 1 -7 -2 -13 -8 -13 -5 0 -10 7 -10 15 0 9 -10
16 -27 16 -22 2 -19 3 12 9 36 6 32 7 -27 9 -40 0 -68 -3 -68 -9 0 -6 -26 -9
-62 -8 l-63 1 50 8 c44 6 -59 5 -205 -4 -25 -1 -34 2 -32 11 1 8 -2 11 -7 7
-6 -3 -15 4 -21 15 -6 11 -18 20 -28 20 -16 1 -16 2 1 14 21 16 22 26 2 26 -9
0 -18 -8 -22 -17 -12 -34 -25 -44 -39 -32 -8 6 -14 20 -14 30 0 13 -7 19 -24
19 -18 0 -25 -7 -29 -30 -4 -16 -12 -30 -18 -30 -6 0 -16 14 -22 30 -14 37
-47 41 -47 6z m-1620 -16 c0 -5 8 -10 18 -11 10 0 7 -4 -11 -11 -20 -7 -32 -7
-43 3 -12 10 -12 14 -2 20 18 12 38 11 38 -1z m1548 -45 c-12 -26 -17 -29 -42
-19 -24 9 -19 24 8 24 14 0 28 5 31 10 12 20 14 10 3 -15z m692 -25 c0 -5 -2
-10 -4 -10 -3 0 -8 5 -11 10 -3 6 -1 10 4 10 6 0 11 -4 11 -10z m655 -21 c-10
-15 -25 -10 -19 6 4 8 10 12 15 9 5 -3 7 -10 4 -15z m-1181 -167 c16 -114 16
-117 -29 -106 -25 6 -25 8 -19 73 7 83 10 92 27 85 8 -3 17 -26 21 -52z m26
38 c0 -5 -2 -10 -4 -10 -3 0 -8 5 -11 10 -3 6 -1 10 4 10 6 0 11 -4 11 -10z
m66 -16 c-5 -18 -3 -24 5 -18 14 8 3 -85 -12 -100 -5 -6 -9 -20 -9 -33 0 -26
-21 -31 -39 -9 -10 12 -8 17 9 26 12 6 20 14 17 16 -3 3 -1 21 5 40 8 31 6 38
-11 53 -33 29 -25 48 23 50 15 1 17 -4 12 -25z m1992 -105 c2 -15 -5 -32 -17
-43 -19 -17 -21 -18 -27 -2 -4 10 -2 22 5 29 6 6 11 19 11 30 0 27 24 15 28
-14z m-1943 -49 c3 -5 4 -14 0 -20 -8 -13 -35 -1 -35 16 0 16 26 19 35 4z
m1875 -4 c0 -14 -29 -31 -38 -22 -2 3 -2 12 1 21 8 19 37 20 37 1z m-1796 -23
c6 -15 -8 -32 -25 -33 -13 0 -31 29 -24 40 10 16 42 12 49 -7z m1794 -65 c7
-7 12 -21 12 -32 0 -18 -1 -18 -18 -3 -10 10 -24 17 -30 17 -13 0 -16 13 -5
23 10 11 28 8 41 -5z m-2000 -61 c4 -18 -19 -47 -37 -47 -12 0 -14 29 -5 55 8
20 38 15 42 -8z"/>
<path d="M100 5010 c-18 -11 10 -18 40 -10 l25 6 -27 6 c-15 3 -32 2 -38 -2z"/>
<path d="M0 5006 c0 -10 28 -13 41 -5 10 6 7 9 -13 9 -16 0 -28 -2 -28 -4z"/>
<path d="M460 5001 c0 -4 28 -8 63 -9 43 -1 56 2 42 8 -26 11 -105 13 -105 1z"/>
<path d="M728 4993 c6 -2 18 -2 25 0 6 3 1 5 -13 5 -14 0 -19 -2 -12 -5z"/>
<path d="M896 4975 c25 -19 51 -19 51 0 0 10 -11 15 -36 15 -33 0 -34 -1 -15
-15z"/>
<path d="M1014 4959 c12 -8 25 -8 40 -1 18 9 16 11 -19 11 -33 0 -37 -1 -21
-10z"/>
<path d="M4235 4960 c3 -5 8 -10 11 -10 2 0 4 5 4 10 0 6 -5 10 -11 10 -5 0
-7 -4 -4 -10z"/>
<path d="M2668 4943 c6 -2 18 -2 25 0 6 3 1 5 -13 5 -14 0 -19 -2 -12 -5z"/>
<path d="M2845 4940 c3 -5 8 -10 11 -10 2 0 4 5 4 10 0 6 -5 10 -11 10 -5 0
-7 -4 -4 -10z"/>
<path d="M3588 4923 c7 -3 16 -2 19 1 4 3 -2 6 -13 5 -11 0 -14 -3 -6 -6z"/>
<path d="M4249 4852 c-3 -24 -1 -46 4 -49 14 -8 15 -1 8 47 l-7 45 -5 -43z"/>
<path d="M4090 4804 c0 -21 4 -33 10 -29 6 3 10 19 10 36 0 16 -4 29 -10 29
-5 0 -10 -16 -10 -36z"/>
<path d="M4126 4345 c-9 -14 -12 -25 -6 -25 5 0 10 4 10 9 0 5 7 17 16 25 8 9
11 16 6 16 -5 0 -17 -11 -26 -25z"/>
<path d="M1889 4239 c-2 -16 -8 -201 -13 -444 -4 -159 -9 -335 -11 -390 -3
-55 -7 -197 -10 -315 -13 -515 -16 -617 -21 -647 -4 -19 0 -44 9 -62 9 -19 11
-33 5 -39 -5 -5 -11 -45 -13 -88 -5 -111 -23 -689 -31 -999 -3 -143 -8 -271
-9 -285 -1 -14 -3 -31 -4 -37 0 -8 -15 -13 -34 -13 -29 0 -34 -4 -49 -43 -14
-40 -14 -44 2 -65 17 -20 30 -22 211 -30 107 -5 201 -12 210 -16 13 -6 18 1
23 38 9 55 1 53 231 44 94 -3 278 -9 410 -12 132 -4 267 -9 300 -11 33 -3 128
-7 210 -10 83 -3 218 -8 300 -11 83 -4 175 -8 206 -9 70 -2 79 -8 79 -51 l0
-34 63 0 c35 0 105 -3 155 -6 104 -8 110 -14 66 -71 -30 -39 -60 -43 -127 -14
-24 10 -68 21 -97 22 -52 4 -53 4 -54 -24 -2 -37 13 -45 34 -19 20 24 63 25
137 2 57 -17 107 -6 133 29 11 16 20 36 20 44 0 9 4 19 10 22 6 3 10 14 10 24
0 10 9 26 20 36 11 10 20 22 20 26 0 4 12 21 28 36 l27 28 -33 3 -32 3 5 232
c2 128 7 412 10 632 8 635 15 1058 20 1365 17 1018 18 1070 4 1074 -13 4 -143
8 -764 21 -522 12 -1301 42 -1567 61 -49 3 -88 5 -89 3z m251 -54 c102 -3 264
-10 360 -15 96 -5 240 -12 320 -15 224 -8 398 -16 475 -20 39 -2 158 -7 265
-11 107 -3 314 -12 460 -18 l265 -11 -1 -335 c-1 -184 -4 -490 -8 -680 -3
-190 -9 -480 -11 -645 -3 -165 -7 -403 -10 -530 -11 -481 -18 -852 -18 -913 1
-45 -3 -62 -13 -62 -11 0 -12 59 -9 328 7 559 23 1495 30 1812 13 574 17 988
9 993 -9 5 -100 10 -509 27 -137 5 -353 15 -480 20 -480 21 -845 36 -1141 47
-96 3 -173 2 -176 -3 -3 -5 -9 -151 -12 -324 -3 -173 -8 -373 -11 -445 -3 -71
-7 -258 -11 -415 -3 -157 -8 -330 -9 -385 -2 -55 -6 -237 -9 -405 -4 -168 -9
-345 -11 -395 -4 -77 -16 -564 -19 -735 l-1 -55 155 -6 c85 -4 247 -9 360 -13
113 -3 248 -8 300 -11 52 -3 167 -7 255 -10 88 -3 216 -8 285 -10 69 -3 253
-10 410 -15 157 -6 341 -13 410 -16 69 -4 130 -7 135 -7 6 0 21 3 34 7 17 6
22 5 19 -5 -4 -11 -40 -14 -169 -14 -178 0 -687 13 -784 20 -57 4 -145 8 -530
20 -93 3 -215 8 -270 10 -55 3 -174 7 -265 10 -91 3 -212 8 -269 11 l-103 6 7
442 c4 242 8 443 10 446 2 3 6 169 10 370 3 201 8 408 10 460 2 52 6 244 10
425 3 182 7 366 10 410 3 44 7 206 11 360 3 154 8 288 11 298 3 11 11 16 21
13 9 -3 100 -8 202 -11z m868 -302 c78 -37 112 -91 112 -178 0 -151 -159 -229
-294 -145 -52 32 -90 109 -83 169 8 67 34 109 85 142 54 34 123 39 180 12z
m185 -395 c18 -13 50 -32 72 -44 66 -34 311 -176 330 -191 6 -4 22 -14 37 -22
24 -12 27 -22 38 -100 6 -47 15 -108 20 -136 5 -27 16 -99 25 -160 9 -60 21
-130 25 -155 5 -24 6 -48 4 -52 -3 -4 -45 -8 -95 -8 l-89 0 -15 33 c-8 17 -28
88 -45 157 -17 69 -35 136 -39 150 -5 14 -12 37 -15 52 -5 21 -17 31 -62 47
-56 21 -84 20 -66 -2 6 -7 23 -50 40 -97 16 -47 57 -157 90 -245 33 -88 67
-178 75 -200 8 -22 29 -78 47 -125 17 -47 45 -123 62 -170 16 -47 35 -98 42
-115 25 -58 93 -242 127 -345 11 -30 23 -64 28 -75 17 -36 59 -150 66 -176 6
-25 4 -26 -106 -58 -61 -18 -115 -29 -119 -24 -10 10 -56 102 -108 213 -22 47
-75 157 -117 245 -123 256 -170 355 -211 442 -30 65 -41 80 -51 71 -28 -23
-171 -332 -178 -383 -6 -49 -38 -254 -72 -467 l-17 -108 -35 1 c-20 0 -72 6
-116 12 l-80 12 0 40 c1 40 22 344 30 420 2 22 9 103 15 180 7 79 18 151 26
167 8 15 14 34 14 43 0 8 4 15 9 15 5 0 13 10 17 23 6 20 28 68 128 279 20 42
36 88 36 101 0 27 -68 177 -80 177 -8 0 -85 -33 -200 -87 -41 -19 -88 -41
-105 -48 -16 -7 -73 -33 -126 -58 -53 -24 -102 -41 -108 -38 -12 8 -111 161
-111 172 0 6 43 35 142 94 36 22 147 91 220 138 74 46 81 54 141 155 35 59 71
124 80 145 24 50 55 68 156 90 47 10 102 22 121 27 57 13 70 11 103 -12z
m-498 -2223 c33 -3 137 -7 230 -10 94 -3 231 -7 305 -10 74 -3 205 -7 290 -10
85 -3 206 -8 268 -11 l112 -7 0 -30 0 -30 -277 7 c-153 3 -318 8 -368 11 -49
3 -223 10 -385 15 -162 5 -378 12 -480 16 -102 3 -189 9 -193 14 -5 4 -10 20
-12 35 l-3 28 227 -7 c124 -3 253 -9 286 -11z"/>
<path d="M3100 4215 c0 -8 5 -15 10 -15 6 0 10 7 10 15 0 8 -4 15 -10 15 -5 0
-10 -7 -10 -15z"/>
<path d="M4432 3931 c-8 -4 -10 -15 -6 -26 6 -14 4 -17 -8 -12 -13 4 -17 -3
-21 -36 -2 -23 -1 -46 3 -50 4 -5 30 -5 56 -1 27 4 43 9 37 11 -7 3 -13 12
-13 21 0 18 -23 88 -31 96 -2 3 -10 1 -17 -3z"/>
<path d="M4601 3821 c-8 -6 -9 -11 -3 -15 6 -3 14 -1 17 5 9 14 2 20 -14 10z"/>
<path d="M4330 3040 c0 -5 5 -10 10 -10 6 0 10 5 10 10 0 6 -4 10 -10 10 -5 0
-10 -4 -10 -10z"/>
<path d="M1780 2000 c0 -5 5 -10 10 -10 6 0 10 5 10 10 0 6 -4 10 -10 10 -5 0
-10 -4 -10 -10z"/>
<path d="M880 1959 c0 -16 -10 -19 -72 -21 l-73 -3 -7 -120 c-21 -344 -22
-416 -15 -615 4 -118 10 -221 12 -227 3 -9 26 -13 69 -13 55 0 64 -3 69 -20 8
-29 77 -29 77 0 0 19 7 20 138 20 77 0 201 -3 277 -7 120 -5 138 -9 142 -24 9
-35 73 -33 73 2 0 17 8 19 75 19 41 0 75 3 76 8 10 147 12 713 2 847 l-8 110
-67 3 c-60 3 -68 5 -68 22 0 16 -7 20 -35 20 -25 0 -35 -4 -35 -15 0 -25 -26
-28 -81 -10 -113 38 -157 44 -222 30 -34 -7 -75 -18 -90 -24 -33 -13 -146 -14
-165 -2 -7 4 -12 13 -10 20 2 8 -10 14 -29 16 -26 2 -33 -1 -33 -16z m30 -179
c0 -5 -4 -10 -10 -10 -5 0 -10 5 -10 10 0 6 5 10 10 10 6 0 10 -4 10 -10z
m320 -121 c0 -5 -4 -9 -10 -9 -5 0 -10 7 -10 16 0 8 5 12 10 9 6 -3 10 -10 10
-16z m150 11 c0 -5 -4 -10 -10 -10 -5 0 -10 5 -10 10 0 6 5 10 10 10 6 0 10
-4 10 -10z m-107 -62 c-2 -5 -13 -8 -24 -8 -10 0 -19 -4 -19 -10 0 -5 -7 -10
-15 -10 -8 0 -15 -4 -15 -10 0 -5 11 -10 25 -10 14 0 25 5 25 10 0 6 5 10 10
10 6 0 9 -3 9 -7 -3 -20 3 -47 8 -35 6 16 33 -3 33 -24 0 -8 7 -14 15 -14 14
0 19 -11 16 -37 -1 -7 3 -13 9 -13 5 0 10 -16 10 -35 0 -28 5 -37 30 -50 16
-8 36 -15 45 -15 15 0 20 -12 9 -22 -3 -3 -24 5 -47 18 -51 29 -57 29 -57 4 0
-15 9 -22 31 -27 29 -6 30 -7 14 -19 -15 -11 -22 -9 -47 16 -33 33 -48 38 -48
15 0 -8 5 -15 10 -15 6 0 10 -7 10 -15 0 -9 7 -18 15 -21 24 -9 17 -24 -10
-24 -14 0 -25 -4 -25 -10 0 -14 -37 -12 -73 4 -18 8 -40 17 -50 20 -18 6 -17
8 5 31 22 24 76 36 63 15 -4 -6 -14 -9 -22 -8 -9 2 -17 -1 -19 -7 -7 -20 12
-34 51 -37 36 -3 40 -1 43 22 4 35 -18 60 -56 63 -24 1 -31 6 -26 17 3 8 -5 5
-16 -8 -14 -15 -28 -21 -39 -17 -9 4 -23 9 -32 12 -11 3 -14 12 -11 30 4 22 2
25 -13 19 -10 -3 -24 -1 -31 5 -11 9 -14 6 -14 -15 0 -17 5 -26 16 -26 8 0 13
-4 9 -10 -3 -5 -13 -6 -22 -3 -11 4 -14 2 -11 -8 3 -8 13 -13 24 -12 10 1 23
-6 29 -14 7 -9 17 -13 22 -10 6 4 10 -1 9 -11 0 -9 -7 -21 -14 -25 -18 -12 -4
-29 19 -22 24 8 25 -8 2 -35 -18 -20 -73 -28 -73 -10 0 6 15 10 33 10 l32 0
-42 22 c-26 13 -39 26 -36 34 6 16 19 18 28 4 9 -15 25 -2 18 15 -3 8 -13 15
-23 15 -23 0 -106 35 -114 48 -3 5 4 12 15 15 12 3 18 10 14 17 -5 8 -11 7
-22 -2 -13 -10 -15 -9 -11 7 2 11 8 19 14 19 5 -1 24 -4 42 -8 24 -4 32 -2 29
7 -2 6 -14 13 -26 13 -12 1 -28 9 -35 19 -12 17 -14 16 -34 -5 -11 -12 -26
-20 -34 -18 -8 3 -1 12 19 25 18 11 31 22 29 24 -2 2 -6 17 -10 32 -5 21 -4
27 5 21 7 -4 17 0 23 8 25 33 79 42 84 14 3 -13 0 -17 -10 -14 -8 3 -23 -1
-33 -9 -19 -14 -19 -14 5 -12 14 2 30 0 36 -3 5 -4 17 -6 25 -5 20 3 59 44 59
62 0 8 7 15 15 15 8 0 15 -4 15 -10 0 -5 5 -10 11 -10 5 0 7 5 4 10 -7 11 12
34 33 41 21 7 60 4 55 -3z m-195 -20 c-6 -18 -28 -21 -28 -4 0 9 7 16 16 16 9
0 14 -5 12 -12z m277 -38 c3 -5 -1 -10 -9 -10 -8 0 -18 5 -21 10 -3 6 1 10 9
10 8 0 18 -4 21 -10z m70 -50 c-3 -5 -11 -10 -16 -10 -6 0 -7 5 -4 10 3 6 11
10 16 10 6 0 7 -4 4 -10z m65 -31 c0 -10 -4 -19 -9 -19 -12 0 -23 29 -15 41 8
14 24 0 24 -22z m-640 17 c0 -3 -4 -8 -10 -11 -5 -3 -10 -1 -10 4 0 6 5 11 10
11 6 0 10 -2 10 -4z m534 -3 c-5 -5 -12 -12 -16 -18 -4 -6 -8 -2 -8 8 0 9 7
17 17 17 9 0 12 -3 7 -7z m54 -20 c-2 -12 4 -18 17 -18 15 0 19 -6 17 -24 -3
-31 0 -28 -41 -33 -23 -2 -36 2 -39 11 -3 10 2 12 19 8 13 -3 31 -2 39 3 8 5
12 10 8 11 -5 1 -11 3 -15 4 -5 2 -19 6 -32 10 l-24 8 24 18 c30 23 31 23 27
2z m82 -43 c0 -5 7 -10 15 -10 8 0 15 -5 15 -11 0 -7 -10 -9 -27 -4 -34 8 -37
11 -28 24 8 14 25 14 25 1z m90 0 c0 -5 -9 -10 -19 -10 -11 0 -23 5 -26 10 -4
6 5 10 19 10 14 0 26 -4 26 -10z m-110 -50 c0 -5 -9 -10 -21 -10 -11 0 -17 5
-14 10 3 6 13 10 21 10 8 0 14 -4 14 -10z m-30 -50 c0 -5 -4 -10 -10 -10 -5 0
-10 5 -10 10 0 6 5 10 10 10 6 0 10 -4 10 -10z m-80 -59 c0 -5 -7 -11 -15 -15
-9 -3 -15 0 -15 9 0 8 7 15 15 15 8 0 15 -4 15 -9z m-199 -24 c-13 -13 -26 -3
-16 12 3 6 11 8 17 5 6 -4 6 -10 -1 -17z m29 -21 c0 -3 -4 -8 -10 -11 -5 -3
-10 -1 -10 4 0 6 5 11 10 11 6 0 10 -2 10 -4z"/>
<path d="M960 1489 c0 -5 7 -9 15 -9 8 0 15 -6 15 -14 0 -8 6 -16 14 -19 14
-6 16 9 3 29 -9 15 -47 25 -47 13z"/>
<path d="M1120 1470 c0 -5 5 -10 10 -10 6 0 10 5 10 10 0 6 -4 10 -10 10 -5 0
-10 -4 -10 -10z"/>
<path d="M1230 1470 c0 -5 7 -10 15 -10 8 0 15 5 15 10 0 6 -7 10 -15 10 -8 0
-15 -4 -15 -10z"/>
<path d="M1328 1433 c7 -3 16 -2 19 1 4 3 -2 6 -13 5 -11 0 -14 -3 -6 -6z"/>
<path d="M1120 1394 c0 -16 37 -37 51 -29 13 9 -5 31 -31 38 -13 3 -20 0 -20
-9z"/>
<path d="M1006 1375 c-3 -8 -1 -15 4 -15 6 0 10 7 10 15 0 8 -2 15 -4 15 -2 0
-6 -7 -10 -15z"/>
<path d="M4506 1845 c-4 -11 -22 -15 -71 -15 -44 0 -67 -4 -70 -12 -2 -7 -6
-132 -9 -278 -6 -272 -13 -453 -21 -597 l-5 -82 72 -3 c67 -3 73 -5 76 -26 3
-18 10 -22 38 -22 28 0 34 4 34 21 0 22 1 22 173 15 348 -13 376 -16 379 -40
2 -17 10 -21 38 -21 28 0 34 4 32 18 -3 15 6 17 66 17 l69 0 7 77 c3 42 6 128
5 192 0 112 -1 115 -17 91 -31 -45 -90 -105 -98 -98 -3 4 1 23 10 43 9 19 26
70 37 112 23 86 19 117 -28 251 -21 61 -36 83 -92 140 -40 39 -91 79 -127 97
-52 26 -70 30 -154 31 -52 1 -99 -1 -105 -4 -5 -4 -14 -7 -20 -8 -5 -1 -18 -5
-27 -9 -10 -4 -18 -3 -18 2 0 15 31 40 65 53 37 15 32 17 -79 25 -75 6 -89 10
-93 26 -6 23 -58 26 -67 4z m467 -146 c150 -51 245 -173 265 -340 12 -98 -5
-163 -64 -253 -26 -39 -51 -72 -55 -74 -4 -2 -5 -10 -3 -17 4 -9 -4 -16 -23
-21 -15 -4 -53 -18 -83 -33 -49 -23 -67 -25 -171 -26 -117 0 -148 7 -192 44
-16 14 -16 16 5 38 l22 23 -50 52 c-27 29 -52 54 -56 56 -5 2 -8 10 -8 19 0 8
-11 29 -24 46 -13 18 -27 47 -29 65 -3 18 -10 38 -15 45 -15 21 -7 179 11 212
9 17 17 35 17 40 0 34 110 105 209 135 53 17 179 11 244 -11z m-413 -29 c0 -5
-7 -10 -15 -10 -8 0 -15 5 -15 10 0 6 7 10 15 10 8 0 15 -4 15 -10z"/>
<path d="M5124 1806 c-10 -21 -8 -25 21 -39 18 -9 49 -30 69 -47 36 -32 96
-113 96 -130 0 -5 5 -12 10 -15 7 -5 10 29 8 102 l-3 108 -65 5 c-55 4 -65 8
-62 23 5 29 -60 23 -74 -7z"/>
<path d="M475 740 c-3 -5 -1 -10 4 -10 6 0 11 5 11 10 0 6 -2 10 -4 10 -3 0
-8 -4 -11 -10z"/>
<path d="M480 650 c0 -11 7 -20 15 -20 17 0 18 2 9 24 -9 23 -24 20 -24 -4z"/>
<path d="M2105 653 c-57 -12 -57 -20 -1 -33 20 -4 36 -4 36 0 0 5 3 15 6 24 6
16 -2 18 -41 9z"/>
<path d="M452 585 c-13 -29 -5 -33 14 -7 15 20 18 32 6 32 -5 0 -14 -11 -20
-25z"/>
<path d="M942 594 c1 -9 9 -19 16 -22 9 -3 13 2 10 14 -1 9 -9 19 -16 22 -9 3
-13 -2 -10 -14z"/>
<path d="M985 600 c3 -5 8 -10 11 -10 2 0 4 5 4 10 0 6 -5 10 -11 10 -5 0 -7
-4 -4 -10z"/>
<path d="M876 533 c8 -36 20 -48 30 -32 4 7 3 14 -4 17 -7 2 -12 12 -12 23 0
10 -5 19 -10 19 -6 0 -8 -11 -4 -27z"/>
<path d="M449 529 c-12 -45 6 -109 32 -109 16 0 5 80 -12 96 -11 10 -19 15
-20 13z"/>
<path d="M2160 514 c0 -10 -7 -38 -16 -61 -9 -24 -15 -45 -12 -48 4 -4 877
-34 1463 -51 l240 -7 2 32 c5 65 8 81 16 81 4 0 7 4 7 9 0 5 -37 9 -82 10 -46
1 -95 3 -111 5 -15 2 -30 -1 -33 -6 -3 -4 -10 -5 -16 -2 -15 10 -42 11 -313
18 -132 4 -274 9 -315 11 -41 2 -226 7 -410 10 -184 3 -354 8 -377 12 -37 4
-43 3 -43 -13z"/>
<path d="M835 500 c-3 -5 1 -10 10 -10 9 0 13 5 10 10 -3 6 -8 10 -10 10 -2 0
-7 -4 -10 -10z"/>
<path d="M806 435 c-11 -8 -16 -18 -13 -22 9 -9 58 18 51 29 -7 11 -16 10 -38
-7z"/>
<path d="M876 432 c-3 -6 -1 -14 5 -17 15 -10 25 3 12 16 -7 7 -13 7 -17 1z"/>
<path d="M435 399 c-4 -5 -4 -13 -1 -16 3 -3 1 -12 -5 -19 -13 -16 1 -25 29
-17 22 5 31 23 12 23 -5 0 -10 6 -10 14 0 19 -17 29 -25 15z"/>
<path d="M1170 378 c0 -19 18 -43 25 -36 9 9 -4 48 -16 48 -5 0 -9 -6 -9 -12z"/>
<path d="M1090 316 c0 -8 -3 -21 -6 -30 -3 -9 -2 -16 4 -16 5 0 12 8 16 18 3
9 9 23 12 30 3 7 -1 12 -10 12 -9 0 -16 -6 -16 -14z"/>
<path d="M1166 288 c-8 -31 -8 -38 3 -38 5 0 11 9 14 21 3 11 12 19 19 17 7
-2 15 2 16 7 1 6 -8 11 -21 13 -18 2 -26 -3 -31 -20z"/>
<path d="M910 289 c0 -5 5 -7 10 -4 6 3 10 8 10 11 0 2 -4 4 -10 4 -5 0 -10
-5 -10 -11z"/>
<path d="M525 270 c3 -5 8 -10 11 -10 2 0 4 5 4 10 0 6 -5 10 -11 10 -5 0 -7
-4 -4 -10z"/>
<path d="M595 230 c-3 -5 -1 -10 4 -10 6 0 11 5 11 10 0 6 -2 10 -4 10 -3 0
-8 -4 -11 -10z"/>
<path d="M730 170 c0 -11 5 -20 10 -20 6 0 10 9 10 20 0 11 -4 20 -10 20 -5 0
-10 -9 -10 -20z"/>
<path d="M30 169 c0 -5 5 -7 10 -4 6 3 10 8 10 11 0 2 -4 4 -10 4 -5 0 -10 -5
-10 -11z"/>
<path d="M903 145 c11 -23 27 -34 27 -17 -1 9 -26 42 -33 42 -3 0 0 -11 6 -25z"/>
<path d="M960 150 c0 -11 7 -20 15 -20 8 0 15 6 15 14 0 8 -7 16 -15 20 -10 4
-15 -1 -15 -14z"/>
<path d="M669 123 c-12 -32 -12 -33 6 -33 8 0 15 7 15 15 0 8 7 15 15 15 8 0
15 -5 15 -12 0 -9 3 -9 11 -1 15 15 5 30 -27 36 -20 3 -27 0 -35 -20z"/>
<path d="M430 123 c0 -5 4 -15 10 -23 11 -18 25 -7 17 15 -6 15 -27 21 -27 8z"/>
<path d="M30 110 c0 -5 5 -10 10 -10 6 0 10 5 10 10 0 6 -4 10 -10 10 -5 0
-10 -4 -10 -10z"/>
<path d="M115 110 c3 -5 13 -10 21 -10 8 0 14 5 14 10 0 6 -9 10 -21 10 -11 0
-17 -4 -14 -10z"/>
<path d="M1104 105 c-8 -21 5 -40 19 -26 6 6 20 11 30 11 16 0 17 3 7 15 -16
19 -49 19 -56 0z"/>
<path d="M548 88 c9 -9 15 -9 24 0 9 9 7 12 -12 12 -19 0 -21 -3 -12 -12z"/>
<path d="M930 82 c0 -10 8 -27 19 -36 17 -16 19 -16 23 1 3 12 -4 25 -19 36
-22 17 -23 17 -23 -1z"/>
<path d="M587 64 c-6 -35 -5 -37 17 -21 14 11 15 15 3 31 -13 18 -14 18 -20
-10z"/>
<path d="M877 70 c-7 -26 9 -26 23 0 8 16 8 20 -3 20 -8 0 -17 -9 -20 -20z"/>
<path d="M820 70 c0 -5 5 -10 10 -10 6 0 10 5 10 10 0 6 -4 10 -10 10 -5 0
-10 -4 -10 -10z"/>
<path d="M82 50 c-14 -23 -4 -33 15 -15 8 8 28 15 44 15 16 0 29 4 29 9 0 18
-76 10 -88 -9z"/>
<path d="M650 41 c0 -5 -3 -18 -7 -28 -6 -15 -4 -16 9 -6 8 7 18 10 21 7 4 -4
22 -8 42 -10 33 -3 34 -2 17 15 -18 20 -82 36 -82 22z"/>
<path d="M784 25 c12 -28 26 -33 26 -10 0 8 -9 19 -19 24 -17 10 -18 9 -7 -14z"/>
<path d="M1250 42 c0 -5 7 -17 16 -28 14 -17 15 -17 10 -1 -3 10 -6 23 -6 28
0 5 -4 9 -10 9 -5 0 -10 -4 -10 -8z"/>
<path d="M460 15 c0 -9 9 -15 21 -15 18 0 19 2 9 15 -7 8 -16 15 -21 15 -5 0
-9 -7 -9 -15z"/>
<path d="M1122 15 c-11 -12 -10 -15 3 -15 8 0 15 7 15 15 0 18 -2 18 -18 0z"/>
<path d="M1182 18 c5 -15 28 -18 29 -3 0 6 -7 12 -17 13 -10 3 -15 -1 -12 -10z"/>
<path d="M878 3 c7 -3 16 -2 19 1 4 3 -2 6 -13 5 -11 0 -14 -3 -6 -6z"/>
</g>
</svg>
